<?xml version="1.0" encoding="utf-8"?>
<!-- Generator: Adobe Illustrator 23.0.3, SVG Export Plug-In . SVG Version: 6.00 Build 0)  -->
<svg version="1.1" id="pin_pointer" xmlns="http://www.w3.org/2000/svg" xmlns:xlink="http://www.w3.org/1999/xlink" x="0px"
	 y="0px" viewBox="0 0 450 450" style="enable-background:new 0 0 450 450;" xml:space="preserve">
<style type="text/css">
	.st0{fill:#595959;}
</style>
<g>
	<path class="st0" d="M272.9,305.4c-2.6,3.8-6.1,7.4-8.7,10.9c28.1,4.1,48.1,12.2,48.1,21.1c0,12.7-39.1,22.1-87.3,22.1
		c-48.2,0-87.3-9.4-87.3-22.1c0-9,20.4-17.2,48.9-21.2c-2.6-3.5-6-7.2-8.6-10.9c-42.5,6.8-72.3,22.4-72.3,40.6
		c0,24.4,53.4,44.1,119.3,44.1c65.9,0,119.3-19.8,119.3-44.1C344.3,327.8,314.9,312.2,272.9,305.4z"/>
	<path class="st0" d="M225,61.5c-53.9,0-97.6,43.7-97.6,97.6c0,81.6,97.6,178.6,97.6,178.6s97.6-96.3,97.6-178.6
		C322.6,105.2,278.9,61.5,225,61.5z M225,217.9c-33.1,0-60-26.9-60-60c0-33.1,26.9-60,60-60c33.1,0,60,26.9,60,60
		C285,191,258.1,217.9,225,217.9z"/>
</g>
</svg>
